<svg id="Layer_1" data-name="Layer 1" xmlns="http://www.w3.org/2000/svg" viewBox="0 0 117.95 114.89"><path d="M10.87,31.73c0,5-.18,9.3,0,13.59.74,14.17,4.85,27.23,14.22,38.08A56.33,56.33,0,0,0,37,93.18a26.72,26.72,0,0,1,11.83,16.06c.49,1.9.55,4.85-.55,6s-4.23,1.16-5.9.41C29.56,109.88,17.18,103.52,7.47,93,3.26,88.36.65,84.25,1.36,77.16,2.39,67,.43,56.64.77,46.39,1,40.39,2.59,34.08,10.87,31.73Z" transform="translate(-0.73 -1.23)"/><path d="M27.82,41.26c-3.78-4.61-3.78-7.72,0-13A44.68,44.68,0,0,1,54.3,10.61c13.06-3.23,24.71.84,35.37,8.05,2,1.32,2.86,4.45,3.82,6.92.77,2,.78,4.22,1.33,6.3,3.93,15.05-.53,33.35-11.55,42.74,1-3.48,1.89-7,3.09-10.44a33.58,33.58,0,0,0-15.53-40c-5.34-2.91-11.1-3.26-16.35-.61-6.63,3.35-12.85,7.51-19.11,11.54A87.88,87.88,0,0,0,27.82,41.26Z" transform="translate(-0.73 -1.23)"/><path d="M59.67,6.7c-4.44.8-7.49,1.41-10.55,1.89C35.67,10.7,26.51,18.81,22.11,31c-1.95,5.39-.09,12.37.78,18.53,1.11,7.79,3,15.47,4.53,23.2l-1.3.72c-1.77-2-4-3.83-5.24-6.16-8.62-16.21-10-33.13-2.66-50C24.45,3,42.61-2.78,56.51,4.18A27.36,27.36,0,0,1,59.67,6.7Z" transform="translate(-0.73 -1.23)"/><path d="M110.65,71.77c-.74,6.65-1.57,11.78-1.83,16.94-.36,7.1-3.42,12.54-10.18,14.51-12.13,3.52-24.45,6.45-36.78,9.23-4.72,1.06-7.37-2.26-8.86-6.35-1.08-2.94-1.93-6-3.1-9.64,6-1.25,11.9-1.64,17.76.84,2.9,1.23,5.69,2.75,8.53,4.16,6.8,3.37,13.14,2,17.47-4.33,2.32-3.4,3.45-7.61,5.76-11C102.68,81.33,106.55,77,110.65,71.77Z" transform="translate(-0.73 -1.23)"/><path d="M97,28.18c3.13,1.74,6.35,2.63,8.19,4.72,6.43,7.28,11.77,15.31,13.38,25.19,1.08,6.63-5.93,15.32-12.6,15.37-1.1,0-2.77-1.73-3.24-3-2.88-7.9-5.68-15.66-4.21-24.58C99.37,40.75,97.7,35.2,97,28.18Z" transform="translate(-0.73 -1.23)"/><path d="M37.84,36.47C37.84,43.7,37.15,51,38,58c1.28,10.58,7,15,17.75,14.68,4.46-.14,8.9-1.08,13.34-1.68,1.59-.21,3.17-.46,4.75-.69l1,1.64c-2.27,1.72-4.3,4.23-6.87,5-10.65,3.35-21.42,1.52-32.08-.39-.9-.16-1.8-2.41-2-3.8-1.26-7.65-2.52-15.32-3.31-23a12.21,12.21,0,0,1,1.74-7.12C33.85,40.1,36.35,38.07,37.84,36.47Z" transform="translate(-0.73 -1.23)"/><path d="M69.69,88.13c10.64,2.11,14.47-6.49,19.72-12.47,3.31-3.78,5.64-8.42,8.84-13.34,3.72,9.81,2.51,18.23-2.3,26.31-.68,1.14-1.42,2.25-2.18,3.34-5.69,8.22-7,8.37-15.34,2.53-2.79-2-5.92-3.44-8.9-5.13Z" transform="translate(-0.73 -1.23)"/><path d="M29.31,82.49C37.19,79.6,43.67,80.65,50.22,84c4.66,2.38,9.86,3.68,15.63,5.75-4.36,3.84-9.58,4.3-14.83,3.51C42.88,92,34.07,91.73,29.31,82.49Z" transform="translate(-0.73 -1.23)"/><path d="M53.57,25.77c3.77.49,7,.21,9.5,1.35C78,33.8,86,43.25,83.75,61.14c-.14,1.15-.19,2.52-.85,3.34a18.51,18.51,0,0,1-3.59,2.79c-.24-1.29-.88-2.67-.64-3.86C81,52,77.88,42,69.7,34.2,65.77,30.48,59.79,28.91,53.57,25.77Z" transform="translate(-0.73 -1.23)"/><path d="M53.72,38.39c6.39-3.48,15-2.19,18.71,2.65,4.67,6.14,3.66,15.79-3.3,22.68.49-3.74.9-6.39,1.17-9.06C71.08,47,68.75,44,61.1,42.9,58,42.46,54.75,42.24,53.72,38.39Z" transform="translate(-0.73 -1.23)"/><path d="M56,31.94C49,41.22,41.38,49,42.36,60.64c-1.92-8.11-2.14-16,2.17-23.31C46.63,33.75,49.71,31.39,56,31.94Z" transform="translate(-0.73 -1.23)"/><path d="M68.1,57C61.22,46.64,53.89,46.6,45.85,54.25l-.71-1.89c1.73-1.71,3.17-4.13,5.25-5a41.79,41.79,0,0,1,11.54-2.73C66.08,44.27,68.67,48.88,68.1,57Z" transform="translate(-0.73 -1.23)"/><path d="M55.75,64.93l4.15,2.52c-2.66,3.42-6.28,3.93-9.7,1.5-4-2.85-4.75-9.15-2-13.43l7.64,9.8Z" transform="translate(-0.73 -1.23)"/><path d="M55.75,64.93l.09.39c-.53-1.11-1.07-2.23-2.12-4.44,6.47,2.35,8.52-1.16,9.79-5.8l1.63.54c-.45,2.48-.09,5.87-1.57,7.21C61.79,64.44,58.43,64.31,55.75,64.93Z" transform="translate(-0.73 -1.23)"/><path d="M61.29,54H56.67l.94,4.37c-1.32.16-3,.86-3.88.32-1.07-.65-2.34-2.75-2-3.56.75-1.72,2.3-4,3.86-4.25,1.88-.36,4.11,1,6.18,1.7Z" transform="translate(-0.73 -1.23)"/></svg>